<svg width="32" height="32" viewBox="0 0 32 32" fill="none" xmlns="http://www.w3.org/2000/svg">
<rect width="32" height="32" rx="2" fill="#528599"/>
<path d="M24.2158 14.5196C23.6312 11.4013 23.3389 9.8422 22.229 8.9211C21.1192 8 19.5328 8 16.3602 8H15.6398C12.4671 8 10.8809 8 9.771 8.9211C8.66115 9.8422 8.36881 11.4013 7.78413 14.5196C6.96199 18.9044 6.55091 21.0968 7.74941 22.5409C8.9479 23.985 11.1785 23.985 15.6397 23.985H16.3602C20.8214 23.985 23.0521 23.985 24.2506 22.5409C24.946 21.703 25.0995 20.6134 24.9453 18.9897" stroke="white" stroke-width="2" stroke-linecap="round"/>
<path d="M13.165 11.9966C13.5765 13.1607 14.6867 13.9947 15.9917 13.9947C17.2967 13.9947 18.4069 13.1607 18.8183 11.9966" stroke="white" stroke-width="2" stroke-linecap="round"/>
</svg>
