<svg xmlns="http://www.w3.org/2000/svg" width="300" height="180" fill="none"><path fill="#F8F9FA" d="M0 0h300v180H0z"/><path fill="#ADB5BD" d="M163.5 78.321a1.12 1.12 0 0 1 1.125 1.108v22.129l-.352-.45-9.562-12.179a1.692 1.692 0 0 0-1.336-.643c-.52 0-1.013.235-1.336.643l-5.836 7.432-2.144-2.955a1.686 1.686 0 0 0-1.371-.692c-.549 0-1.055.256-1.372.7l-5.625 7.749-.316.429V79.429a1.12 1.12 0 0 1 1.125-1.108h27ZM136.5 75c-2.482 0-4.5 1.986-4.5 4.429v22.142c0 2.443 2.018 4.429 4.5 4.429h27c2.482 0 4.5-1.986 4.5-4.429V79.429c0-2.443-2.018-4.429-4.5-4.429h-27Zm5.625 13.286c.443 0 .882-.086 1.292-.253a3.376 3.376 0 0 0 1.094-.72c.314-.309.562-.675.732-1.078a3.268 3.268 0 0 0 0-2.542 3.317 3.317 0 0 0-.732-1.077 3.376 3.376 0 0 0-1.094-.72 3.428 3.428 0 0 0-2.584 0 3.376 3.376 0 0 0-1.094.72 3.317 3.317 0 0 0-.732 1.077 3.269 3.269 0 0 0 0 2.542c.17.403.418.77.732 1.078.313.308.685.553 1.094.72.41.167.849.253 1.292.253Z"/></svg>