<svg width="330" height="180" viewBox="0 0 330 180" fill="none" xmlns="http://www.w3.org/2000/svg">
<rect width="330" height="180" fill="#F8F9FA"/>
<path d="M180.25 78.3214C180.931 78.3214 181.488 78.8196 181.488 79.4286V101.558L181.101 101.108L170.582 88.9292C170.234 88.521 169.685 88.2857 169.113 88.2857C168.54 88.2857 167.999 88.521 167.643 88.9292L161.224 96.3609L158.865 93.4062C158.517 92.9703 157.96 92.7143 157.356 92.7143C156.753 92.7143 156.196 92.9703 155.848 93.4132L149.661 101.163L149.313 101.592V101.571V79.4286C149.313 78.8196 149.869 78.3214 150.55 78.3214H180.25ZM150.55 75C147.82 75 145.6 76.9859 145.6 79.4286V101.571C145.6 104.014 147.82 106 150.55 106H180.25C182.98 106 185.2 104.014 185.2 101.571V79.4286C185.2 76.9859 182.98 75 180.25 75H150.55ZM156.738 88.2857C157.225 88.2857 157.708 88.1998 158.158 88.0329C158.609 87.866 159.018 87.6213 159.363 87.3129C159.707 87.0045 159.981 86.6383 160.168 86.2353C160.354 85.8324 160.45 85.4005 160.45 84.9643C160.45 84.5281 160.354 84.0962 160.168 83.6932C159.981 83.2903 159.707 82.9241 159.363 82.6157C159.018 82.3073 158.609 82.0626 158.158 81.8957C157.708 81.7288 157.225 81.6429 156.738 81.6429C156.25 81.6429 155.767 81.7288 155.317 81.8957C154.866 82.0626 154.457 82.3073 154.112 82.6157C153.768 82.9241 153.494 83.2903 153.308 83.6932C153.121 84.0962 153.025 84.5281 153.025 84.9643C153.025 85.4005 153.121 85.8324 153.308 86.2353C153.494 86.6383 153.768 87.0045 154.112 87.3129C154.457 87.6213 154.866 87.866 155.317 88.0329C155.767 88.1998 156.25 88.2857 156.738 88.2857Z" fill="#ADB5BD"/>
</svg>
